<?xml version="1.0" encoding="UTF-8"?>
<svg width="141" height="49" viewBox="0 0 141 49" fill="none" xmlns="http://www.w3.org/2000/svg">
    <defs></defs>
    <g id="Web" stroke="none" stroke-width="1" fill="none" fill-rule="evenodd">
        <g id="Home" transform="translate(-111.000000, -2958.000000)">
            <g id="WRI-footer" transform="translate(0.000000, 2891.000000)">
                <g id="WRI-logo" transform="translate(111.000000, 67.000000)">
                    <path d="M14.0998 4.48828L11.4087 7.17615L13.9428 9.71345L16.6339 7.02238L14.0998 4.48828Z"
                          fill="white"/>
                    <path d="M32.0879 27.8558L41.8142 37.5822L44.5053 34.8911L34.779 25.168L32.0879 27.8558Z"
                          fill="white"/>
                    <path d="M11.0591 13.9422L13.747 16.6333L24.492 5.89143L28.3172 9.7166L31.0083 7.02552L24.492 0.509277L11.0591 13.9422Z"
                          fill="white"/>
                    <path d="M39.2739 13.9455L41.965 16.6366L44.5055 14.0961L41.8144 11.405L39.2739 13.9455Z"
                          fill="white"/>
                    <path d="M11.4106 41.8127L21.1357 32.0877L23.8269 34.7789L14.1019 44.504L11.4106 41.8127Z"
                          fill="white"/>
                    <path d="M25.1689 28.0532L35.2383 17.9838L37.9296 20.675L27.8602 30.7444L25.1689 28.0532Z"
                          fill="white"/>
                    <path d="M32.354 13.7533L43.0991 24.4984L39.2803 28.3204L41.9682 31.0115L48.4812 24.4984L35.0451 11.0623L32.354 13.7533Z"
                          fill="white"/>
                    <path d="M4.48877 34.891L7.17985 37.582L9.70753 35.0544L7.01646 32.3633L4.48877 34.891Z"
                          fill="white"/>
                    <path d="M25.1694 14.2117L34.8945 4.48661L37.5857 7.17782L27.8606 16.9029L25.1694 14.2117Z"
                          fill="white"/>
                    <path d="M0.5 24.5014L13.9362 37.9376L16.6272 35.2465L5.88215 24.5014L9.71373 20.6667L7.02265 17.9756L0.5 24.5014Z"
                          fill="white"/>
                    <path d="M17.979 13.7467L28.0545 23.8223L30.7424 21.1312L20.6701 11.0557L17.979 13.7467Z"
                          fill="white"/>
                    <path d="M32.3594 41.9661L35.0506 39.2749L37.5855 41.8098L34.8943 44.501L32.3594 41.9661Z"
                          fill="white"/>
                    <path d="M4.48975 14.0991L7.18096 11.4079L16.906 21.133L14.2148 23.8242L4.48975 14.0991Z"
                          fill="white"/>
                    <path d="M18.248 27.8552L20.9393 25.164L31.0132 35.2379L28.322 37.9292L18.248 27.8552Z"
                          fill="white"/>
                    <path d="M24.4889 43.1084L20.6637 39.2832L17.9727 41.9743L24.4889 48.4906L37.9347 35.048L35.2436 32.3569L24.4889 43.1084Z"
                          fill="white"/>
                    <path d="M11.0532 28.3252L21.1339 18.2445L23.8252 20.9357L13.7444 31.0164L11.0532 28.3252Z"
                          fill="white"/>
                    <path d="M62.0839 5.81453C62.0314 5.53978 61.8988 5.28673 61.7026 5.0873C61.5771 5.0223 61.4371 4.99033 61.2958 4.99439C61.19 4.99439 61.126 4.99439 61.126 4.90148C61.126 4.80858 61.2157 4.81178 61.3534 4.81178C61.8917 4.81178 62.4555 4.83741 62.5516 4.83741C62.6477 4.83741 63.0962 4.81178 63.6921 4.81178C63.8331 4.81178 63.9068 4.83741 63.9068 4.90148C63.9068 4.96556 63.8235 4.99439 63.7209 4.99439C63.6337 4.98782 63.5461 5.00095 63.4646 5.03283C63.3717 5.07448 63.3525 5.14496 63.3525 5.25709C63.4031 5.5829 63.4792 5.90425 63.58 6.21819C63.753 6.90057 64.7077 10.0209 64.8935 10.5944H64.9255L66.9182 5.23466C67.0239 4.94313 67.0912 4.86624 67.1777 4.86624C67.2642 4.86624 67.3411 5.02002 67.4788 5.3532L69.6157 10.5207H69.6445C69.8303 9.83192 70.6537 7.11521 71.0189 5.91384C71.0764 5.71897 71.1098 5.51777 71.1182 5.31476C71.1182 5.15457 71.0253 4.99439 70.6216 4.99439C70.5223 4.99439 70.4518 4.95915 70.4518 4.90148C70.4518 4.84382 70.5287 4.81178 70.6889 4.81178C71.2303 4.81178 71.65 4.83741 71.7557 4.83741C71.8614 4.83741 72.2683 4.81178 72.6079 4.81178C72.72 4.81178 72.7937 4.8278 72.7937 4.89187C72.7937 4.95595 72.7457 4.99439 72.6528 4.99439C72.5301 4.99161 72.4078 5.00893 72.2907 5.04565C72.0409 5.13855 71.9319 5.54862 71.7109 6.1381C71.2431 7.41956 70.1635 10.7033 69.6573 12.2443C69.5452 12.6063 69.4939 12.728 69.3594 12.728C69.2248 12.728 69.196 12.6063 69.039 12.2218L66.9022 7.07036H66.8798C66.6843 7.59576 65.3164 11.2351 64.8743 12.1802C64.6756 12.6063 64.6276 12.728 64.5026 12.728C64.3777 12.728 64.3617 12.6159 64.2688 12.3468L62.0839 5.81453Z"
                          fill="white"/>
                    <path fill-rule="evenodd" clip-rule="evenodd"
                          d="M78.9033 4.66431C75.815 4.66431 74.6553 6.9357 74.6553 8.69772C74.6553 10.5014 75.847 12.7119 78.8104 12.7247C81.4182 12.7247 83.0681 10.8634 83.0681 8.5087C83.0681 6.15401 81.4663 4.66431 78.9033 4.66431ZM81.6168 8.88569C81.6168 8.88817 81.6168 8.89066 81.6168 8.89314V8.87712C81.6168 8.87998 81.6168 8.88284 81.6168 8.88569ZM78.6022 5.15767C80.2887 5.15767 81.614 6.58343 81.6168 8.88569C81.6136 11.8508 79.9534 12.1993 79.2333 12.2057C77.2599 12.2057 76.0713 10.5014 76.0713 8.36133C76.0713 5.7984 77.42 5.15767 78.6022 5.15767Z"
                          fill="white"/>
                    <path fill-rule="evenodd" clip-rule="evenodd"
                          d="M86.8 5.59668C86.8224 5.92025 86.8224 6.21499 86.8224 7.77517L86.8481 9.58524C86.8481 10.5303 86.8481 11.344 86.7968 11.7765C86.7552 12.0745 86.7007 12.3019 86.4957 12.3404C86.3763 12.3705 86.2535 12.3845 86.1304 12.382C86.0023 12.382 85.9607 12.3981 85.9607 12.4685C85.9607 12.539 86.0311 12.5678 86.1689 12.5678C86.4232 12.5678 86.786 12.5568 87.0615 12.5483C87.2303 12.5432 87.3663 12.539 87.4247 12.539C87.4765 12.539 87.597 12.5423 87.7569 12.5466C88.0715 12.5552 88.5385 12.5678 88.9337 12.5678C89.0714 12.5678 89.1451 12.5166 89.1451 12.4685C89.1451 12.4205 89.097 12.382 89.0137 12.382C88.8464 12.3795 88.6794 12.3656 88.514 12.3404C88.2 12.3019 88.1423 12.0745 88.1103 11.7765C88.0591 11.344 88.0591 10.5367 88.0591 9.57563V9.42826C88.0571 9.40562 88.0652 9.38326 88.0813 9.36719C88.0974 9.35112 88.1197 9.34298 88.1423 9.34496L89.0394 9.37059C89.1073 9.36406 89.1745 9.38883 89.222 9.43787C89.3038 9.53296 89.503 9.81661 89.7371 10.1501C89.8974 10.3783 90.0741 10.6299 90.2407 10.8603C90.8142 11.6516 91.2083 12.1354 91.6536 12.3756C91.9964 12.5359 92.3756 12.6022 92.7524 12.5678H93.7135C93.8417 12.5678 93.9121 12.5166 93.9121 12.4685C93.9121 12.4205 93.8705 12.382 93.7872 12.382C93.6914 12.3822 93.5959 12.3725 93.5021 12.3532C93.0495 12.2539 92.6427 12.0071 92.3455 11.6516C91.8021 11.0941 91.1894 10.3189 90.427 9.35411C90.3219 9.22115 90.214 9.08459 90.103 8.94451C91.1378 8.09874 91.4581 7.40675 91.4581 6.64428C91.4572 6.09138 91.199 5.57039 90.7597 5.23467C90.1871 4.90142 89.5273 4.74847 88.8664 4.79577C88.7116 4.79577 88.4462 4.80187 88.1745 4.80812C87.8893 4.81468 87.5971 4.82139 87.4183 4.82139C87.3357 4.82139 87.1885 4.8176 87.0074 4.81292C86.7181 4.80546 86.3424 4.79577 86.0055 4.79577C85.8549 4.79577 85.7812 4.81819 85.7812 4.88547C85.7812 4.95274 85.8421 4.97837 85.9575 4.97837C86.0926 4.97609 86.2277 4.98574 86.3611 5.00721C86.6975 5.07769 86.7776 5.27311 86.8 5.59668ZM88.1263 8.77471C88.0558 8.73947 88.0334 8.70103 88.0334 8.5889V5.46213C88.0334 5.37883 88.0558 5.34039 88.1263 5.32117C88.3047 5.27978 88.4882 5.26467 88.6709 5.27631C89.286 5.27631 90.2471 5.69599 90.2471 7.15366C90.2471 7.99943 89.962 8.47357 89.6417 8.70103C89.4271 8.848 89.1659 8.91073 88.908 8.87723C88.6439 8.8808 88.3806 8.84627 88.1263 8.77471Z"
                          fill="white"/>
                    <path d="M97.4878 9.58513C97.4878 10.8986 97.4878 11.6098 97.7024 11.7957C97.9171 11.9815 98.1478 12.0263 98.9455 12.0263C99.4933 12.0263 99.9066 12.0263 100.15 11.7348C100.295 11.5588 100.387 11.3456 100.416 11.1197C100.416 11.0268 100.445 10.9627 100.528 10.9627C100.611 10.9627 100.615 11.0172 100.615 11.1357C100.592 11.533 100.541 11.9281 100.461 12.3179C100.4 12.5453 100.345 12.5998 99.8201 12.5998C99.08 12.5998 98.5386 12.5773 98.0837 12.5677C97.6288 12.5581 97.2411 12.5421 96.8278 12.5421C96.7157 12.5421 96.4851 12.5421 96.2416 12.5421C95.9981 12.5421 95.7386 12.5645 95.5336 12.5645C95.399 12.5645 95.3253 12.5357 95.3253 12.4652C95.3253 12.3947 95.3702 12.3787 95.4887 12.3787C95.6139 12.3813 95.7389 12.3673 95.8603 12.3371C96.0718 12.2986 96.1198 12.0712 96.1583 11.7732C96.2095 11.3407 96.2095 10.527 96.2095 9.58192V7.77506C96.2095 6.21488 96.2095 5.92014 96.1903 5.59657C96.1711 5.273 96.0846 5.07758 95.7482 5.0071C95.6363 4.98567 95.5225 4.97601 95.4086 4.97826C95.2933 4.97826 95.2324 4.95263 95.2324 4.88536C95.2324 4.81808 95.3061 4.79565 95.4599 4.79565C95.9436 4.79565 96.5908 4.82128 96.8695 4.82128C97.1482 4.82128 97.869 4.79565 98.2663 4.79565C98.4137 4.79565 98.4873 4.81167 98.4873 4.88536C98.4873 4.95904 98.4233 4.97826 98.2983 4.97826C98.1643 4.97887 98.0306 4.9885 97.8979 5.0071C97.6192 5.05835 97.5359 5.23456 97.5166 5.59657C97.4974 5.95858 97.4974 6.21488 97.4974 7.77506L97.4878 9.58513Z"
                          fill="white"/>
                    <path fill-rule="evenodd" clip-rule="evenodd"
                          d="M104.017 5.59657C104.039 5.92014 104.039 6.21488 104.039 7.77506L104.055 9.58833C104.055 10.5334 104.055 11.3471 104.004 11.7796C103.962 12.0776 103.911 12.305 103.706 12.3435C103.585 12.3735 103.46 12.3875 103.334 12.3851C103.213 12.3851 103.171 12.4011 103.171 12.4716C103.171 12.5421 103.238 12.5709 103.373 12.5709C103.473 12.5709 103.583 12.5658 103.699 12.5604C103.824 12.5546 103.956 12.5485 104.084 12.5485H104.674C104.88 12.5485 105.158 12.5698 105.465 12.5932C105.535 12.5986 105.607 12.604 105.68 12.6094L105.713 12.6119C106.095 12.64 106.504 12.6703 106.865 12.6703C108.765 12.6703 109.835 11.9398 110.309 11.4593C111.044 10.6813 111.445 9.64628 111.427 8.57597C111.453 7.60872 111.096 6.67027 110.434 5.96499C109.312 4.79565 107.589 4.79565 106.307 4.79565C105.925 4.79565 105.532 4.80479 105.215 4.81216C105.002 4.81712 104.823 4.82128 104.706 4.82128C104.583 4.82128 104.397 4.81672 104.182 4.81145C103.888 4.80422 103.539 4.79565 103.222 4.79565C103.072 4.79565 102.998 4.81808 102.998 4.88536C102.998 4.95263 103.059 4.97826 103.174 4.97826C103.308 4.97588 103.442 4.98553 103.575 5.0071C103.914 5.07758 103.994 5.273 104.017 5.59657ZM105.343 10.9851C105.321 10.7865 105.321 9.9952 105.321 8.90595L105.327 7.62128V5.56133C105.315 5.47013 105.371 5.38358 105.458 5.3563C105.676 5.30523 105.898 5.28155 106.122 5.28581C107.193 5.23035 108.244 5.59857 109.047 6.31099C109.707 6.99724 110.062 7.92178 110.03 8.87392C110.03 9.93433 109.831 10.8666 109.165 11.4368C108.553 11.9719 107.852 12.1769 106.801 12.1769C105.99 12.1769 105.59 11.9622 105.458 11.7668C105.373 11.5153 105.334 11.2505 105.343 10.9851Z"
                          fill="white"/>
                    <path fill-rule="evenodd" clip-rule="evenodd"
                          d="M62.9809 22.291C63.0001 22.6178 63.0001 22.9093 63.0001 24.4727L63.0129 26.2796C63.0129 27.2278 63.0129 28.0384 62.9649 28.4741C62.9232 28.7688 62.872 28.9995 62.6669 29.0379C62.5453 29.0677 62.4205 29.0828 62.2953 29.0828C62.1704 29.0828 62.1287 29.0924 62.1287 29.1629C62.1287 29.2333 62.2056 29.2654 62.337 29.2654C62.5913 29.2654 62.9541 29.2531 63.2296 29.2437C63.3983 29.238 63.5344 29.2333 63.5928 29.2333C63.6446 29.2333 63.7651 29.237 63.9249 29.2418C64.2396 29.2513 64.7066 29.2654 65.1017 29.2654C65.2363 29.2654 65.31 29.2173 65.31 29.1629C65.31 29.1084 65.2683 29.0828 65.185 29.0828C65.0166 29.0776 64.8487 29.0626 64.682 29.0379C64.3745 28.9995 64.3136 28.7688 64.2816 28.4741C64.2303 28.0384 64.2303 27.2343 64.2303 26.2732V26.129C64.2303 26.0681 64.2592 26.0457 64.3136 26.0457L65.201 26.0681C65.2725 26.0583 65.3441 26.0861 65.39 26.1418C65.4719 26.2236 65.6793 26.5211 65.9215 26.8685C66.0776 27.0923 66.2481 27.3369 66.4088 27.5578C66.9855 28.3523 67.3763 28.8329 67.8152 29.07C68.1581 29.2337 68.539 29.3012 68.9173 29.2654H69.8976C70.0193 29.2654 70.093 29.2173 70.093 29.1629C70.093 29.1084 70.045 29.0828 69.9681 29.0828C69.8711 29.0802 69.7745 29.0684 69.6797 29.0475C69.227 28.9549 68.8198 28.7095 68.5264 28.3523C67.9803 27.7864 67.3617 27.0055 66.5955 26.0383C66.4942 25.9105 66.3904 25.7795 66.2839 25.6452C67.3219 24.7995 67.6422 24.1011 67.6422 23.3418C67.6403 22.79 67.3822 22.2704 66.9438 21.9354C66.3729 21.5967 65.7127 21.4392 65.0505 21.4837C64.8914 21.4837 64.6216 21.4922 64.3473 21.5009C64.0636 21.5098 63.7751 21.5189 63.5992 21.5189C63.5146 21.5189 63.3654 21.5136 63.1828 21.5071C62.8949 21.4969 62.5241 21.4837 62.1928 21.4837C62.0326 21.4837 61.9653 21.5061 61.9653 21.5798C61.9653 21.6535 62.0294 21.6759 62.1383 21.6759C62.2713 21.6735 62.4043 21.6831 62.5356 21.7047C62.8816 21.7752 62.9617 21.9642 62.9809 22.291ZM64.3072 25.469C64.2367 25.4402 64.2175 25.3986 64.2175 25.2832V22.1565C64.2175 22.0732 64.2367 22.0347 64.3072 22.0123C64.4878 21.9789 64.6716 21.966 64.855 21.9738C65.4637 21.9738 66.4248 22.3935 66.4248 23.8544C66.4248 24.7002 66.1397 25.1679 65.8193 25.3986C65.6061 25.5456 65.3455 25.6073 65.0889 25.5716C64.8247 25.5763 64.5613 25.5418 64.3072 25.469Z"
                          fill="white"/>
                    <path d="M72.3805 24.4726C72.3805 22.9093 72.3805 22.6177 72.3613 22.2909C72.3421 21.9642 72.2588 21.7752 71.9192 21.7047C71.7868 21.6835 71.6528 21.6738 71.5188 21.6758C71.4066 21.6758 71.3394 21.6534 71.3394 21.5797C71.3394 21.5061 71.413 21.4836 71.57 21.4836C71.8455 21.4836 72.1467 21.4836 72.4062 21.4836C72.6657 21.4836 72.9059 21.5061 73.0469 21.5061C73.3673 21.5061 75.4208 21.5061 75.6098 21.5061C75.7989 21.5061 75.9686 21.4676 76.0519 21.4484C76.1042 21.4304 76.1577 21.4165 76.2121 21.4067C76.2634 21.4067 76.2762 21.4484 76.2762 21.4964C76.2762 21.5445 76.2281 21.6951 76.1929 22.1692C76.1929 22.2685 76.1641 22.7266 76.1448 22.8452C76.1448 22.8964 76.1096 22.9573 76.0391 22.9573C75.9686 22.9573 75.9462 22.9093 75.9462 22.8163C75.949 22.6911 75.9295 22.5663 75.8886 22.4479C75.8149 22.2621 75.7124 22.1276 75.1966 22.0731C75.0204 22.0507 73.9407 22.0347 73.7357 22.0347C73.6844 22.0347 73.6652 22.0635 73.6652 22.134V24.7417C73.6652 24.8122 73.6652 24.8507 73.7357 24.8507C73.9632 24.8507 75.1485 24.8507 75.3824 24.8315C75.6162 24.8122 75.7828 24.7802 75.8725 24.6777C75.9622 24.5752 75.9879 24.5431 76.0391 24.5431C76.0904 24.5431 76.1096 24.5623 76.1096 24.6264C76.1096 24.6905 76.0712 24.8507 76.0295 25.3761C76.0295 25.5811 75.9879 25.9944 75.9879 26.0681C75.9879 26.1417 75.9879 26.2603 75.895 26.2603C75.8021 26.2603 75.8021 26.2186 75.8021 26.1706C75.8002 26.0448 75.7874 25.9193 75.7636 25.7958C75.7124 25.5939 75.5714 25.4401 75.187 25.3985C74.9915 25.3761 73.9728 25.3633 73.7293 25.3633C73.678 25.3633 73.6652 25.4081 73.6652 25.469V26.2795C73.6652 26.6287 73.6652 27.5802 73.6652 27.8813C73.6844 28.5861 73.8478 28.7463 74.8954 28.7463C75.2205 28.7649 75.5463 28.7236 75.8565 28.6246C76.1256 28.4964 76.2474 28.285 76.321 27.8589C76.3403 27.7436 76.3595 27.7019 76.4332 27.7019C76.5069 27.7019 76.5165 27.7884 76.5165 27.8909C76.4988 28.2738 76.4539 28.655 76.3819 29.0315C76.305 29.2974 76.2185 29.2974 75.8277 29.2974C75.0556 29.2974 74.4918 29.2749 74.0464 29.2685C73.6011 29.2621 73.284 29.2365 72.9764 29.2365C72.8611 29.2365 72.6368 29.2365 72.387 29.2365C72.1371 29.2365 71.8872 29.2557 71.6789 29.2557C71.5476 29.2557 71.4707 29.2237 71.4707 29.1532C71.4707 29.0827 71.5156 29.0731 71.6341 29.0731C71.7604 29.0732 71.8862 29.0582 72.0089 29.0282C72.2172 28.9898 72.2652 28.7591 72.3069 28.4644C72.3581 28.0287 72.3581 27.2182 72.3581 26.2699L72.3805 24.4726Z"
                          fill="white"/>
                    <path d="M79.935 29.1436C79.7652 29.0699 79.7363 29.0219 79.7363 28.7944C79.7363 28.2242 79.7748 27.6091 79.7844 27.4457C79.794 27.2823 79.8292 27.1798 79.9093 27.1798C79.9894 27.1798 80.0118 27.2727 80.0118 27.3528C80.0218 27.531 80.053 27.7074 80.1047 27.8782C80.2839 28.5325 80.902 28.9679 81.5784 28.9162C82.5011 28.9162 82.956 28.2754 82.956 27.7404C82.956 27.2054 82.7958 26.7793 81.9469 26.0969L81.4727 25.7253C80.3418 24.8411 79.951 24.1235 79.951 23.2905C79.951 22.1564 80.8961 21.3427 82.3281 21.3427C82.7886 21.3368 83.2478 21.3939 83.6929 21.5125C83.7858 21.5381 83.837 21.5638 83.837 21.6374C83.837 21.7688 83.7922 22.0667 83.7922 22.8708C83.7922 23.0983 83.7601 23.1912 83.6832 23.1912C83.6064 23.1912 83.5775 23.1303 83.5775 23.0086C83.5598 22.7595 83.4671 22.5216 83.3116 22.3262C83.0425 21.984 82.6215 21.7969 82.1871 21.8265C81.4279 21.8265 80.9665 22.2686 80.9665 22.8837C80.9665 23.3578 81.2068 23.7134 82.059 24.367L82.3441 24.5816C83.5935 25.5171 84.0292 26.2251 84.0292 27.2054C84.0425 27.9281 83.6783 28.6055 83.0681 28.993C82.5736 29.2895 82.0042 29.4374 81.4279 29.4191C80.9163 29.4348 80.4072 29.3409 79.935 29.1436Z"
                          fill="white"/>
                    <path fill-rule="evenodd" clip-rule="evenodd"
                          d="M91.2246 21.3428C88.1363 21.3428 86.9766 23.6206 86.9766 25.3762C86.9766 27.1991 88.1779 29.4128 91.1285 29.4064C93.7395 29.4064 95.3894 27.5355 95.3894 25.1872C95.3894 22.8389 93.7875 21.3428 91.2246 21.3428ZM90.9299 21.8361C92.6118 21.8361 93.9381 23.2682 93.9381 25.5716H93.9445C93.9445 28.5606 92.2754 28.881 91.5546 28.9034C89.5811 28.9034 88.3958 27.1991 88.3958 25.059C88.3958 22.4993 89.7445 21.8361 90.9299 21.8361Z"
                          fill="white"/>
                    <path d="M98.8044 24.4727C98.8044 22.9094 98.8044 22.6178 98.7852 22.2911C98.7659 21.9643 98.6794 21.7753 98.3398 21.7048C98.2064 21.6833 98.0713 21.6737 97.9362 21.676C97.8241 21.676 97.7632 21.6535 97.7632 21.5798C97.7632 21.5062 97.8337 21.4837 97.9906 21.4837C98.5353 21.4837 99.1824 21.519 99.4932 21.519C99.7366 21.519 100.39 21.4837 100.755 21.4837C100.912 21.4837 100.983 21.5062 100.983 21.5798C100.983 21.6535 100.922 21.676 100.819 21.676C100.718 21.6765 100.618 21.6861 100.518 21.7048C100.24 21.7528 100.163 21.9354 100.137 22.2911C100.111 22.6467 100.121 22.9094 100.121 24.4727V25.9112C100.121 27.4009 100.416 28.032 100.922 28.4453C101.284 28.7353 101.74 28.8844 102.203 28.865C102.732 28.8727 103.243 28.6725 103.626 28.3075C104.19 27.7405 104.219 26.8178 104.219 25.7446V24.4631C104.219 22.8998 104.219 22.6082 104.203 22.2814C104.187 21.9547 104.097 21.7657 103.757 21.6952C103.634 21.6746 103.51 21.665 103.386 21.6663C103.273 21.6663 103.213 21.6439 103.213 21.5702C103.213 21.4965 103.283 21.4741 103.43 21.4741C103.953 21.4741 104.597 21.5094 104.597 21.5094C104.738 21.5094 105.381 21.4741 105.782 21.4741C105.929 21.4741 105.997 21.4965 105.997 21.5702C105.997 21.6439 105.939 21.6663 105.814 21.6663C105.715 21.6666 105.616 21.6762 105.519 21.6952C105.241 21.7432 105.154 21.9258 105.135 22.2814C105.116 22.6371 105.116 22.8998 105.116 24.4631V25.562C105.116 26.7057 105.003 27.9167 104.135 28.6567C103.543 29.1698 102.778 29.4369 101.995 29.4032C101.454 29.4032 100.464 29.3679 99.7142 28.6888C99.1888 28.2146 98.8012 27.4554 98.8012 25.9657L98.8044 24.4727Z"
                          fill="white"/>
                    <path fill-rule="evenodd" clip-rule="evenodd"
                          d="M109.601 22.2909C109.623 22.6176 109.623 22.9092 109.623 24.4726L109.649 26.2794C109.649 27.2277 109.649 28.0382 109.598 28.4739C109.556 28.7687 109.505 28.9993 109.3 29.0378C109.178 29.0678 109.053 29.0828 108.928 29.0826C108.803 29.0826 108.765 29.0922 108.765 29.1627C108.765 29.2332 108.838 29.2652 108.97 29.2652C109.224 29.2652 109.587 29.2529 109.862 29.2436C110.031 29.2378 110.167 29.2332 110.226 29.2332C110.277 29.2332 110.398 29.2368 110.559 29.2417C110.874 29.2511 111.342 29.2652 111.738 29.2652C111.869 29.2652 111.943 29.2172 111.943 29.1627C111.943 29.1083 111.901 29.0826 111.818 29.0826C111.65 29.0776 111.484 29.0626 111.318 29.0378C111.004 28.9993 110.95 28.7687 110.914 28.4739C110.863 28.0382 110.863 27.2341 110.863 26.273V26.1289C110.863 26.068 110.895 26.0456 110.95 26.0456L111.84 26.068C111.91 26.0585 111.979 26.0865 112.023 26.1417C112.103 26.2215 112.302 26.5068 112.538 26.8435C112.699 27.074 112.877 27.3285 113.045 27.5577C113.618 28.3522 114.009 28.8327 114.454 29.0698C114.796 29.2339 115.176 29.3015 115.553 29.2652H116.514C116.642 29.2652 116.713 29.2172 116.713 29.1627C116.713 29.1083 116.671 29.0826 116.588 29.0826C116.491 29.0799 116.394 29.0681 116.3 29.0474C115.847 28.954 115.44 28.7087 115.146 28.3522C114.62 27.807 114.029 27.0624 113.3 26.144C113.172 25.983 113.04 25.8167 112.904 25.6451C113.942 24.7993 114.262 24.1009 114.262 23.3417C114.262 22.7887 114.002 22.268 113.561 21.9353C112.991 21.5955 112.332 21.4379 111.67 21.4835C111.514 21.4835 111.248 21.4919 110.977 21.5005C110.692 21.5095 110.4 21.5188 110.219 21.5188C110.136 21.5188 109.988 21.5135 109.807 21.5071C109.518 21.4968 109.145 21.4835 108.813 21.4835C108.653 21.4835 108.582 21.506 108.582 21.5797C108.582 21.6533 108.649 21.6758 108.758 21.6758C108.893 21.6736 109.028 21.6833 109.162 21.7046C109.501 21.7751 109.578 21.9641 109.601 22.2909ZM110.93 25.4689C110.857 25.4401 110.837 25.3984 110.837 25.2831V22.1563C110.837 22.073 110.857 22.0346 110.93 22.0121C111.11 21.9789 111.293 21.966 111.475 21.9737C112.087 21.9737 113.048 22.3934 113.048 23.8543C113.048 24.7 112.763 25.1678 112.442 25.3984C112.229 25.5446 111.969 25.6063 111.712 25.5714C111.448 25.5766 111.184 25.5421 110.93 25.4689Z"
                          fill="white"/>
                    <path d="M119.106 28.2851C118.304 27.5282 117.843 26.478 117.83 25.3751C117.817 24.2723 118.252 23.2113 119.035 22.4353C119.772 21.7529 120.749 21.3428 122.284 21.3428C122.782 21.3416 123.28 21.3769 123.773 21.4485C124.168 21.4966 124.497 21.5959 124.805 21.6215C124.914 21.6215 124.959 21.6856 124.959 21.7465C124.959 21.8073 124.927 21.9483 124.908 22.3103C124.888 22.6723 124.908 23.2169 124.876 23.422C124.876 23.5758 124.843 23.6591 124.751 23.6591C124.658 23.6591 124.651 23.5758 124.651 23.4316C124.632 23.0788 124.489 22.7441 124.248 22.4865C123.927 22.1277 123.11 21.8458 122.162 21.8458C121.462 21.7987 120.772 22.0288 120.24 22.4865C119.487 23.1753 119.279 24.1492 119.279 25.1488C119.279 27.5963 121.143 28.8105 122.521 28.8105C123.434 28.8105 123.991 28.7112 124.398 28.2339C124.567 28.0394 124.688 27.8078 124.751 27.5579C124.783 27.3913 124.805 27.3529 124.885 27.3529C124.965 27.3529 124.978 27.4234 124.978 27.5066C124.936 27.9676 124.86 28.4248 124.751 28.8746C124.729 29.0167 124.626 29.133 124.488 29.1726C123.886 29.3485 123.26 29.4296 122.633 29.4128C121.223 29.4128 120.041 29.1021 119.106 28.2851Z"
                          fill="white"/>
                    <path d="M128.791 24.4726C128.791 22.9093 128.791 22.6177 128.791 22.2909C128.791 21.9642 128.685 21.7752 128.345 21.7047C128.213 21.6831 128.079 21.6735 127.945 21.6758C127.833 21.6758 127.769 21.6534 127.769 21.5797C127.769 21.5061 127.842 21.4836 127.99 21.4836C128.275 21.4836 128.569 21.4836 128.829 21.4836C129.088 21.4836 129.335 21.5061 129.47 21.5061C129.79 21.5061 131.844 21.5061 132.033 21.5061C132.222 21.5061 132.388 21.4676 132.472 21.4484C132.524 21.4316 132.578 21.4177 132.632 21.4067C132.689 21.4067 132.696 21.4484 132.696 21.4964C132.658 21.7191 132.632 21.9437 132.619 22.1692C132.619 22.2685 132.59 22.7266 132.568 22.8452C132.568 22.8964 132.536 22.9573 132.465 22.9573C132.395 22.9573 132.369 22.9093 132.369 22.8163C132.371 22.6906 132.349 22.5657 132.305 22.4479C132.234 22.2621 132.132 22.1276 131.619 22.0731C131.446 22.0507 130.364 22.0347 130.158 22.0347C130.107 22.0347 130.085 22.0635 130.085 22.134V24.7417C130.085 24.8122 130.101 24.8507 130.158 24.8507C130.383 24.8507 131.571 24.8507 131.805 24.8315C131.983 24.8429 132.159 24.7881 132.299 24.6777C132.369 24.5944 132.411 24.5431 132.465 24.5431C132.52 24.5431 132.536 24.5623 132.536 24.6264C132.536 24.6905 132.491 24.8507 132.452 25.3761C132.452 25.5811 132.411 25.9944 132.411 26.0681C132.411 26.1417 132.411 26.2603 132.318 26.2603C132.293 26.2633 132.268 26.2549 132.25 26.2375C132.232 26.2201 132.223 26.1955 132.225 26.1706C132.223 26.0448 132.21 25.9193 132.186 25.7958C132.132 25.5939 131.988 25.4401 131.607 25.3985C131.411 25.3761 130.392 25.3633 130.152 25.3633C130.101 25.3633 130.085 25.4081 130.085 25.469V26.2795C130.085 26.6287 130.085 27.5802 130.085 27.8813C130.107 28.5861 130.274 28.7463 131.321 28.7463C131.647 28.765 131.972 28.7237 132.283 28.6246C132.548 28.4964 132.673 28.285 132.747 27.8589C132.763 27.7436 132.785 27.7019 132.859 27.7019C132.933 27.7019 132.939 27.7884 132.939 27.8909C132.923 28.2738 132.879 28.6549 132.808 29.0315C132.734 29.2974 132.638 29.2974 132.25 29.2974C131.482 29.2974 130.915 29.2749 130.472 29.2685C130.03 29.2621 129.71 29.2365 129.406 29.2365C129.29 29.2365 129.063 29.2365 128.816 29.2365C128.569 29.2365 128.31 29.2557 128.105 29.2557C127.964 29.2557 127.9 29.2237 127.9 29.1532C127.9 29.0827 127.942 29.0731 128.063 29.0731C128.189 29.0733 128.313 29.0582 128.435 29.0282C128.64 28.9898 128.691 28.7591 128.733 28.4644C128.781 28.0287 128.781 27.2182 128.781 26.2699L128.791 24.4726Z"
                          fill="white"/>
                    <path d="M136.345 29.1437C136.181 29.07 136.146 29.022 136.146 28.7945C136.146 28.2242 136.188 27.6091 136.2 27.4458C136.213 27.2824 136.239 27.1798 136.319 27.1798C136.399 27.1798 136.422 27.2728 136.422 27.3528C136.431 27.5313 136.463 27.7079 136.518 27.8782C136.695 28.5321 137.312 28.9676 137.988 28.9162C138.911 28.9162 139.366 28.2755 139.366 27.7405C139.366 27.2055 139.212 26.7794 138.357 26.097L137.886 25.7254C136.755 24.8412 136.364 24.1236 136.364 23.2906C136.364 22.1565 137.309 21.3428 138.738 21.3428C139.201 21.3382 139.662 21.3975 140.109 21.519C140.202 21.5446 140.253 21.5702 140.253 21.6439C140.253 21.7753 140.215 22.0732 140.215 22.8773C140.215 23.1048 140.179 23.1977 140.096 23.1977C140.013 23.1977 139.994 23.1368 139.994 23.0151C139.974 22.7663 139.882 22.5289 139.728 22.3327C139.458 21.9909 139.038 21.8039 138.603 21.8329C137.844 21.8329 137.383 22.275 137.383 22.8901C137.383 23.3643 137.62 23.7199 138.475 24.3734L138.76 24.5881C140.006 25.5236 140.449 26.2316 140.449 27.2119C140.46 27.9343 140.097 28.6111 139.487 28.9995C138.994 29.2949 138.426 29.4427 137.85 29.4256C137.334 29.4409 136.82 29.3448 136.345 29.1437Z"
                          fill="white"/>
                    <path d="M63.0001 41.1703C63.0001 39.6101 63.0001 39.3217 62.9809 38.9886C62.9617 38.6554 62.8592 38.4664 62.6317 38.4151C62.5103 38.3844 62.3851 38.3715 62.2601 38.3767C62.1575 38.3767 62.0967 38.3542 62.0967 38.2645C62.0967 38.1748 62.18 38.1876 62.3402 38.1876C62.7342 38.1876 63.3813 38.2165 63.6793 38.2165C63.9772 38.2165 64.5443 38.1876 64.9351 38.1876C65.0697 38.1876 65.1498 38.2101 65.1498 38.2645C65.1498 38.319 65.0889 38.3767 64.9832 38.3767C64.8758 38.3744 64.7685 38.383 64.6628 38.4023C64.3873 38.4535 64.304 38.6297 64.288 38.9886C64.272 39.3474 64.2624 39.6101 64.2624 41.1703V42.9771C64.2624 43.9735 64.2624 44.7872 64.304 45.2197C64.3392 45.4984 64.4097 45.6778 64.7141 45.7195C64.8891 45.7459 65.0657 45.7609 65.2427 45.7643C65.3548 45.7643 65.4029 45.7931 65.4029 45.8476C65.4029 45.9021 65.326 45.9469 65.2106 45.9469C64.5315 45.9469 63.8811 45.9181 63.6088 45.9181C63.3365 45.9181 62.7246 45.9469 62.3273 45.9469C62.196 45.9469 62.1191 45.9181 62.1191 45.8476C62.1191 45.7771 62.1608 45.7643 62.2857 45.7643C62.4109 45.7643 62.5357 45.7492 62.6573 45.7195C62.8624 45.6778 62.9232 45.508 62.9553 45.2069C63.0033 44.7744 63.0033 43.9606 63.0033 42.9643L63.0001 41.1703Z"
                          fill="white"/>
                    <path d="M69.8398 44.5789C69.8623 45.3798 69.9936 45.6489 70.2018 45.7194C70.3749 45.7732 70.5557 45.7981 70.7369 45.793C70.8522 45.793 70.9099 45.8123 70.9099 45.8763C70.9099 45.9404 70.8202 45.9757 70.676 45.9757C70.0064 45.9757 69.5899 45.9468 69.3945 45.9468C69.3048 45.9468 68.8211 45.9757 68.2829 45.9757C68.1515 45.9757 68.0586 45.9757 68.0586 45.8763C68.0586 45.777 68.1195 45.793 68.2188 45.793C68.3762 45.7947 68.5332 45.7775 68.6865 45.7418C68.9556 45.6585 69.0069 45.3574 69.0069 44.4603L69.103 38.3734C69.103 38.1683 69.1286 38.0242 69.2343 38.0242C69.3401 38.0242 69.4394 38.1587 69.6156 38.3445C69.7373 38.4823 71.3039 40.1578 72.8032 41.6475C73.5048 42.3491 74.892 43.8324 75.065 43.9926H75.1195L75.0169 39.3761C75.0169 38.7354 74.908 38.5528 74.6645 38.4471C74.4877 38.4025 74.3053 38.3842 74.1231 38.3926C73.9982 38.3926 73.9533 38.3574 73.9533 38.2965C73.9533 38.2356 74.0719 38.2036 74.2256 38.2036C74.7607 38.2036 75.254 38.2324 75.4687 38.2324C75.584 38.2324 75.9716 38.2036 76.4746 38.2036C76.6092 38.2036 76.7149 38.2036 76.7149 38.2965C76.7149 38.3894 76.6508 38.3926 76.5259 38.3926C76.4184 38.3882 76.3109 38.3968 76.2055 38.4182C75.9172 38.5047 75.8371 38.7194 75.8275 39.296L75.7121 45.7834C75.7121 46.0109 75.6705 46.1038 75.5776 46.1038C75.4847 46.1038 75.3405 45.9853 75.2284 45.8763C74.5877 45.2548 73.2645 43.9093 72.1945 42.8489C71.07 41.7372 69.9295 40.4525 69.7437 40.2571H69.7181L69.8398 44.5789Z"
                          fill="white"/>
                    <path d="M80.0535 45.8604C79.8902 45.7835 79.8613 45.7322 79.8613 45.508C79.8613 44.9441 79.8998 44.3258 79.9094 44.1592C79.919 43.9926 79.951 43.8933 80.0343 43.8933C80.1176 43.8933 80.1368 43.9862 80.1368 44.0695C80.1466 44.2457 80.1778 44.4199 80.2297 44.5885C80.4085 45.2421 81.0244 45.6782 81.7002 45.6297C82.6229 45.6297 83.0778 45.005 83.0778 44.4572C83.0778 43.9574 82.924 43.4961 82.0719 42.8105L81.5977 42.4421C80.4636 41.5547 80.076 40.8402 80.076 40.0041C80.076 38.87 81.0179 38.0627 82.4499 38.0627C82.9115 38.0568 83.3717 38.1139 83.8179 38.2325C83.9108 38.2549 83.962 38.2805 83.962 38.3574C83.962 38.4952 83.9236 38.7899 83.9236 39.5908C83.9236 39.8183 83.8915 39.9112 83.8082 39.9112C83.7249 39.9112 83.7025 39.8503 83.7025 39.7222C83.6839 39.4768 83.5924 39.2425 83.4398 39.0494C83.1742 38.7039 82.7534 38.5139 82.3185 38.5432C81.5561 38.5432 81.0947 38.9853 81.0947 39.6004C81.0947 40.0746 81.3318 40.4334 82.184 41.0837L82.4723 41.2984C83.7153 42.2338 84.1574 42.945 84.1574 43.9222C84.1713 44.645 83.807 45.3227 83.1963 45.7098C82.7047 46.0076 82.1369 46.1557 81.5625 46.1359C81.0457 46.1513 80.5315 46.0574 80.0535 45.8604Z"
                          fill="white"/>
                    <path d="M89.5875 38.7643L88.0562 38.8028C87.4539 38.8252 87.2136 38.8732 87.0598 39.1039C86.9875 39.2111 86.9324 39.3289 86.8964 39.4531C86.8772 39.5396 86.8484 39.578 86.7875 39.578C86.7266 39.578 86.6914 39.53 86.6914 39.4147C86.6914 39.2513 86.8868 38.3158 86.9125 38.2325C86.9445 38.0947 86.9733 38.0403 87.031 38.0403C87.1735 38.0927 87.3204 38.1324 87.4699 38.1588C87.771 38.1877 88.1619 38.2101 88.5015 38.2101H92.5797C92.8156 38.2109 93.0512 38.1937 93.2845 38.1588C93.3772 38.1359 93.4714 38.1198 93.5665 38.1108C93.6369 38.1108 93.6466 38.1684 93.6466 38.3222C93.6466 38.5401 93.6145 39.2513 93.6145 39.5172C93.6145 39.6229 93.5857 39.6838 93.5216 39.6838C93.4575 39.6838 93.4191 39.6293 93.4063 39.4819V39.3634C93.3839 39.0975 93.1051 38.8092 92.1889 38.7899L90.9074 38.7579V42.9771C90.9074 43.9382 90.9074 44.7359 90.9619 45.178C90.9875 45.4664 91.0516 45.6906 91.3591 45.7323C91.532 45.7587 91.7065 45.7737 91.8813 45.7771C91.9967 45.7771 92.0479 45.806 92.0479 45.8604C92.0479 45.9149 91.9646 45.9597 91.8525 45.9597C91.1733 45.9597 90.5294 45.9309 90.2507 45.9309C90.0104 45.9309 89.3601 45.9597 88.95 45.9597C88.8186 45.9597 88.7418 45.9309 88.7418 45.8604C88.7418 45.7899 88.7866 45.7771 88.9083 45.7771C89.0336 45.7778 89.1585 45.7627 89.28 45.7323C89.4882 45.6906 89.5459 45.4664 89.5779 45.1716C89.6292 44.7359 89.6292 43.9222 89.6292 42.9771L89.5875 38.7643Z"
                          fill="white"/>
                    <path d="M97.1478 41.1703C97.1478 39.6101 97.1478 39.3217 97.1286 38.9886C97.1094 38.6554 97.0005 38.4664 96.7794 38.4151C96.657 38.3844 96.5307 38.3715 96.4046 38.3767C96.3021 38.3767 96.2412 38.3542 96.2412 38.2645C96.2412 38.1748 96.3213 38.1876 96.4847 38.1876C96.8787 38.1876 97.5291 38.2165 97.827 38.2165C98.125 38.2165 98.6888 38.1876 99.0797 38.1876C99.2142 38.1876 99.2943 38.2101 99.2943 38.2645C99.2943 38.319 99.2334 38.3767 99.1309 38.3767C99.0235 38.3742 98.9162 38.3828 98.8106 38.4023C98.535 38.4535 98.4485 38.6297 98.4325 38.9886C98.4165 39.3474 98.4101 39.6101 98.4101 41.1703V42.9771C98.4101 43.9735 98.4101 44.7872 98.4485 45.2197C98.4838 45.4984 98.5511 45.6778 98.865 45.7195C99.0389 45.7463 99.2145 45.7613 99.3904 45.7643C99.5025 45.7643 99.5506 45.7931 99.5506 45.8476C99.5506 45.9021 99.4641 45.9469 99.352 45.9469C98.676 45.9469 98.0289 45.9181 97.7501 45.9181C97.4714 45.9181 96.8659 45.9469 96.4527 45.9469C96.3181 45.9469 96.2476 45.9181 96.2476 45.8476C96.2476 45.7771 96.2893 45.7643 96.4142 45.7643C96.5384 45.7643 96.6621 45.7493 96.7826 45.7195C96.9877 45.6778 97.0485 45.508 97.0806 45.2069C97.135 44.7744 97.135 43.9606 97.135 42.9643L97.1478 41.1703Z"
                          fill="white"/>
                    <path d="M104.766 38.7642L103.235 38.8122C102.639 38.8346 102.389 38.8827 102.232 39.1134C102.154 39.2205 102.097 39.341 102.062 39.469C102.037 39.5555 102.008 39.5939 101.947 39.5939C101.886 39.5939 101.857 39.5459 101.857 39.4305C101.857 39.2671 102.05 38.3317 102.069 38.2484C102.101 38.1106 102.13 38.0562 102.194 38.0562C102.338 38.1096 102.487 38.1493 102.639 38.1747C102.937 38.2035 103.325 38.2259 103.664 38.2259H107.739C107.977 38.2268 108.215 38.2097 108.451 38.1747C108.541 38.152 108.633 38.1359 108.726 38.1266C108.797 38.1266 108.809 38.1843 108.809 38.3381C108.809 38.5559 108.777 39.2671 108.777 39.533C108.777 39.6388 108.745 39.6996 108.688 39.6996C108.63 39.6996 108.582 39.6452 108.569 39.4978V39.3793C108.55 39.1134 108.268 38.825 107.358 38.8058L106.057 38.7738V42.977C106.057 43.9381 106.057 44.7358 106.109 45.1779C106.141 45.4662 106.202 45.6905 106.509 45.7321C106.682 45.7583 106.856 45.7733 107.031 45.777C107.15 45.777 107.201 45.8058 107.201 45.8603C107.201 45.9147 107.118 45.9596 107.003 45.9596C106.327 45.9596 105.676 45.9308 105.385 45.9308C105.154 45.9308 104.504 45.9596 104.103 45.9596C103.972 45.9596 103.898 45.9308 103.898 45.8603C103.898 45.7898 103.943 45.777 104.065 45.777C104.188 45.7772 104.311 45.7622 104.43 45.7321C104.641 45.6905 104.702 45.4662 104.734 45.1715C104.782 44.7358 104.782 43.9221 104.782 42.977L104.766 38.7642Z"
                          fill="white"/>
                    <path d="M111.885 41.1702C111.885 39.61 111.885 39.3217 111.862 38.9885C111.84 38.6553 111.76 38.4791 111.42 38.4022C111.289 38.3804 111.156 38.3718 111.023 38.3766C110.911 38.3766 110.847 38.3542 110.847 38.2805C110.847 38.2068 110.917 38.1876 111.074 38.1876C111.616 38.1876 112.266 38.2164 112.573 38.2164C112.82 38.2164 113.464 38.1876 113.839 38.1876C113.993 38.1876 114.066 38.21 114.066 38.2805C114.066 38.3509 114.002 38.3766 113.9 38.3766C113.8 38.3745 113.7 38.3831 113.602 38.4022C113.326 38.4535 113.24 38.6297 113.221 38.9885C113.201 39.3473 113.201 39.61 113.201 41.1702V42.6086C113.201 44.1015 113.499 44.7326 114.002 45.1395C114.363 45.4339 114.819 45.5845 115.284 45.5624C115.811 45.5691 116.32 45.3703 116.703 45.0082C117.267 44.4411 117.296 43.5185 117.296 42.4452V41.1638C117.296 39.6036 117.296 39.3152 117.276 38.9821C117.257 38.6489 117.177 38.4727 116.838 38.3958C116.716 38.3752 116.592 38.3666 116.469 38.3702C116.351 38.3702 116.286 38.3477 116.286 38.2741C116.286 38.2004 116.36 38.1812 116.504 38.1812C117.033 38.1812 117.68 38.21 117.69 38.21C117.815 38.21 118.462 38.1812 118.865 38.1812C119.006 38.1812 119.077 38.2036 119.077 38.2741C119.077 38.3445 119.019 38.3702 118.894 38.3702C118.794 38.368 118.694 38.3765 118.596 38.3958C118.314 38.4471 118.234 38.6233 118.212 38.9821C118.189 39.3409 118.193 39.6036 118.193 41.1638V42.2626C118.193 43.4063 118.077 44.6205 117.216 45.3606C116.623 45.8724 115.858 46.1384 115.076 46.1038C114.531 46.1038 113.544 46.0718 112.795 45.3958C112.269 44.9217 111.878 44.1592 111.878 42.6663L111.885 41.1702Z"
                          fill="white"/>
                    <path d="M124.059 38.7643L122.527 38.8027C121.928 38.8251 121.685 38.8732 121.531 39.1038C121.455 39.2135 121.395 39.3332 121.352 39.4594C121.336 39.5459 121.3 39.5844 121.239 39.5844C121.179 39.5844 121.146 39.5363 121.146 39.421C121.146 39.2576 121.342 38.3221 121.361 38.2389C121.396 38.1011 121.428 38.0466 121.489 38.0466C121.631 38.1005 121.778 38.1402 121.928 38.1652C122.226 38.194 122.62 38.2164 122.96 38.2164H127.032C127.27 38.2173 127.507 38.2002 127.743 38.1652C127.835 38.1418 127.93 38.1257 128.025 38.1171C128.092 38.1171 128.105 38.1748 128.105 38.3286C128.105 38.5464 128.07 39.2576 128.07 39.5235C128.07 39.6292 128.041 39.6901 127.977 39.6901C127.913 39.6901 127.871 39.6356 127.868 39.4883V39.3697C127.842 39.1038 127.567 38.8155 126.654 38.7963L125.356 38.7643V42.9771C125.356 43.9382 125.356 44.7359 125.407 45.178C125.439 45.4663 125.503 45.6906 125.805 45.7322C125.979 45.7586 126.154 45.7735 126.33 45.7771C126.449 45.7771 126.497 45.8059 126.497 45.8604C126.497 45.9148 126.413 45.9597 126.301 45.9597C125.619 45.9597 124.975 45.9308 124.699 45.9308C124.424 45.9308 123.809 45.9597 123.399 45.9597C123.267 45.9597 123.194 45.9308 123.194 45.8604C123.194 45.7899 123.232 45.7771 123.36 45.7771C123.484 45.7771 123.608 45.762 123.729 45.7322C123.937 45.6906 123.995 45.4663 124.03 45.1716C124.078 44.7359 124.078 43.9221 124.078 42.9771L124.059 38.7643Z"
                          fill="white"/>
                    <path d="M131.61 41.1702C131.61 39.61 131.61 39.3217 131.591 38.9885C131.571 38.6553 131.491 38.4791 131.152 38.4022C131.017 38.3803 130.881 38.3718 130.745 38.3766C130.636 38.3766 130.572 38.3542 130.572 38.2805C130.572 38.2068 130.642 38.1876 130.799 38.1876H131.635C131.901 38.2036 132.135 38.21 132.276 38.21C132.596 38.21 134.656 38.21 134.839 38.21C135.022 38.21 135.201 38.1651 135.284 38.1459C135.337 38.1247 135.392 38.1096 135.448 38.1011C135.499 38.1011 135.509 38.1459 135.509 38.194C135.468 38.4153 135.442 38.6389 135.429 38.8635C135.429 38.9661 135.393 39.421 135.371 39.5459C135.371 39.6004 135.342 39.6549 135.272 39.6549C135.201 39.6549 135.179 39.61 135.179 39.5139C135.182 39.3881 135.16 39.2629 135.115 39.1455C135.044 38.9597 134.945 38.8251 134.426 38.7738C134.253 38.7514 133.176 38.729 132.968 38.729C132.914 38.729 132.894 38.7642 132.894 38.8347V41.4361C132.894 41.513 132.894 41.5482 132.968 41.5482C133.192 41.5482 134.378 41.5482 134.615 41.529C134.791 41.5424 134.966 41.4887 135.105 41.3784C135.179 41.2951 135.22 41.2439 135.272 41.2439C135.323 41.2439 135.342 41.2631 135.342 41.324C135.342 41.3848 135.3 41.5482 135.259 42.0736C135.259 42.2786 135.22 42.6951 135.22 42.7624C135.22 42.8297 135.22 42.9642 135.127 42.9642C135.034 42.9642 135.034 42.9194 135.034 42.8681C135.027 42.7436 135.013 42.6196 134.993 42.4965C134.945 42.2915 134.797 42.1345 134.419 42.0992C134.224 42.0736 133.199 42.064 132.955 42.064C132.907 42.064 132.894 42.1057 132.894 42.1697V42.977C132.894 43.3262 132.894 44.2745 132.894 44.5789C132.914 45.2933 133.083 45.4439 134.128 45.4439C134.453 45.4624 134.779 45.4211 135.089 45.3221C135.355 45.1972 135.477 44.9825 135.55 44.5597C135.569 44.4475 135.589 44.4059 135.666 44.4059C135.742 44.4059 135.746 44.486 135.746 44.5917C135.73 44.9758 135.685 45.3581 135.611 45.7354C135.537 46.0013 135.445 46.0013 135.054 46.0013C134.282 46.0013 133.715 45.9789 133.279 45.9693C132.843 45.9597 132.516 45.9404 132.206 45.9404C132.094 45.9404 131.866 45.9404 131.619 45.9404C131.373 45.9404 131.113 45.9629 130.911 45.9629C130.777 45.9629 130.706 45.934 130.706 45.8635C130.706 45.7931 130.745 45.7803 130.87 45.7803C130.994 45.7805 131.118 45.7654 131.238 45.7354C131.446 45.6938 131.498 45.4695 131.536 45.1748C131.587 44.7391 131.587 43.9253 131.587 42.9803L131.61 41.1702Z"
                          fill="white"/>
                </g>
            </g>
        </g>
    </g>
</svg>
